<svg width="120" height="40" viewBox="0 0 174 62" fill="none" xmlns="http://www.w3.org/2000/svg">
<path d="M36.4141 0.908024L21.6214 60.8377H0L14.7927 0.908024H36.4141Z" fill="white"/>
<path d="M68.1415 61.7457C63.1784 61.7457 58.6342 60.7469 54.5091 58.7493C50.3839 56.6911 47.0966 53.6946 44.6473 49.7598C42.1979 45.7645 40.9733 40.9822 40.9733 35.413C40.9733 30.6307 41.7145 26.1209 43.197 21.8834C44.6795 17.646 46.8066 13.8928 49.5782 10.6239C52.3498 7.355 55.7982 4.78227 59.9233 2.90568C64.113 0.968562 68.8827 0 74.2326 0C79.1957 0 83.6754 1.0291 87.6717 3.08729C91.7324 5.14548 94.9552 8.14196 97.3401 12.0767C99.7894 15.951 101.014 20.703 101.014 26.3327C101.014 31.0545 100.305 35.5643 98.887 39.8623C97.469 44.0998 95.342 47.853 92.5059 51.1218C89.7343 54.3907 86.2858 56.9937 82.1607 58.9309C78.0999 60.8075 73.4269 61.7457 68.1415 61.7457ZM68.9149 53.2103C72.46 53.2103 75.5539 52.4536 78.1966 50.9402C80.9037 49.3663 83.1598 47.3081 84.9645 44.7657C86.7693 42.1627 88.1228 39.257 89.0252 36.0486C89.9276 32.8403 90.3788 29.6016 90.3788 26.3327C90.3788 22.5796 89.6698 19.3712 88.2518 16.7077C86.8338 14.0441 84.8356 12.0162 82.2574 10.6239C79.7436 9.23159 76.7786 8.53544 73.3624 8.53544C69.8174 8.53544 66.6912 9.3224 63.9841 10.8963C61.2769 12.4097 58.9887 14.4679 57.1195 17.0709C55.3147 19.6134 53.9612 22.4888 53.0588 25.6971C52.1564 28.845 51.7052 32.0836 51.7052 35.413C51.7052 39.1662 52.4142 42.3745 53.8323 45.0381C55.2503 47.7016 57.2484 49.7295 59.8267 51.1218C62.4049 52.5142 65.4343 53.2103 68.9149 53.2103Z" fill="white"/>
<path d="M68.9149 53.2103C72.46 53.2103 75.5539 52.4536 78.1966 50.9402C80.9037 49.3663 83.1598 47.3081 84.9645 44.7657C86.7693 42.1627 88.1228 39.257 89.0252 36.0486C89.9276 32.8403 90.3788 29.6016 90.3788 26.3327C90.3788 22.5796 89.6698 19.3712 88.2518 16.7077C86.8338 14.0441 84.8356 12.0162 82.2574 10.6239C79.7436 9.23159 76.7786 8.53544 73.3624 8.53544C69.8174 8.53544 66.6912 9.3224 63.9841 10.8963C61.2769 12.4097 58.9887 14.4679 57.1195 17.0709C55.3147 19.6134 53.9612 22.4888 53.0588 25.6971C52.1564 28.845 51.7052 32.0836 51.7052 35.413C51.7052 39.1662 52.4142 42.3745 53.8323 45.0381C55.2503 47.7016 57.2484 49.7295 59.8267 51.1218C62.4049 52.5142 65.4343 53.2103 68.9149 53.2103Z" fill="white"/>
<path d="M120.578 0H173.681L158.309 62H105.206L120.578 0Z" fill="white"/>
</svg>
