<svg width="200" height="28" viewBox="0 0 200 28" fill="none" xmlns="http://www.w3.org/2000/svg">
<path d="M9.58491 27.5C5.91502 27.5 3.37432 26.7528 1.96282 25.2585C0.987608 24.198 0.5 22.7157 0.5 20.8116C0.5 19.9921 0.589823 19.1124 0.769468 18.1724L2.34778 9.85701C3.50264 3.7591 7.67297 0.710142 14.8588 0.710142C17.8358 0.710142 20.0941 1.3127 21.634 2.51782C23.1738 3.69884 23.9437 5.32576 23.9437 7.39857C23.9437 8.36266 23.7897 9.32676 23.4817 10.2909C23.1994 11.2309 22.9171 11.9298 22.6348 12.3878L22.2114 13.1108H15.3977C16.2446 12.195 16.6681 10.8934 16.6681 9.20625C16.6681 8.31446 16.4243 7.61549 15.9366 7.10934C15.449 6.57909 14.7305 6.31396 13.7809 6.31396C11.1889 6.31396 9.64907 7.66369 9.16146 10.3632L7.81412 17.6662C7.6858 18.2929 7.62164 18.9075 7.62164 19.51C7.62164 21.1008 8.63536 21.8962 10.6628 21.8962C13.1008 21.8962 14.5636 20.6067 15.0513 18.0277H21.9804L21.7879 19.0762C20.7614 24.6921 16.6937 27.5 9.58491 27.5Z" fill="black"/>
<path d="M40.8224 0.963218C43.7481 0.963218 45.8268 1.56578 47.0587 2.7709C47.9825 3.68679 48.4445 4.84371 48.4445 6.24165C48.4445 6.7237 48.3932 7.22985 48.2905 7.76011L47.7516 10.5801C47.4436 12.1467 46.9047 13.4121 46.1348 14.3762C45.3905 15.3403 44.5565 16.0272 43.6326 16.437L47.1356 26.9938H39.3596L36.126 17.2685H33.7393L32.1609 26.9938H24.7698L29.6587 0.963218H40.8224ZM38.3972 6.60319H35.51L34.5092 12.8939H37.2038C38.564 12.8939 39.5392 12.5926 40.1295 11.9901C40.7197 11.3634 41.0149 10.5439 41.0149 9.53163C41.0149 7.57934 40.1423 6.60319 38.3972 6.60319Z" fill="black"/>
<path d="M69.3571 26.9938H50.0324L54.9213 0.963218H74.246L73.1681 6.60319H60.7726L59.8872 11.4839H70.127L69.0491 17.1239H58.8094L58.0395 21.3539H70.435L69.3571 26.9938Z" fill="black"/>
<path d="M87.4956 26.9938L87.7266 21.3177H81.2979L79.4116 26.9938H72.059L81.9523 0.963218H94.6558L94.8098 26.9938H87.4956ZM85.9173 7.29011L82.8762 16.4731H87.9191L88.3425 7.29011H85.9173Z" fill="black"/>
<path d="M123.682 6.60319H114.212L110.401 26.9938H103.433L107.244 6.60319H97.7357L98.8136 0.963218H124.759L123.682 6.60319Z" fill="black"/>
<path d="M139.722 0.89543L133.281 26.9938H123.865L130.307 0.89543H139.722Z" fill="black"/>
<path d="M153.539 27.3893C151.378 27.3893 149.399 26.9543 147.603 26.0844C145.806 25.188 144.375 23.8831 143.308 22.1696C142.241 20.4297 141.708 18.3471 141.708 15.9218C141.708 13.8392 142.031 11.8752 142.676 10.0299C143.322 8.18453 144.248 6.55009 145.455 5.12654C146.662 3.70299 148.164 2.5826 149.96 1.76538C151.785 0.921793 153.862 0.5 156.192 0.5C158.353 0.5 160.304 0.948155 162.044 1.84446C163.813 2.74077 165.216 4.04569 166.255 5.75923C167.321 7.4464 167.855 9.51582 167.855 11.9675C167.855 14.0237 167.546 15.9877 166.928 17.8594C166.311 19.7047 165.385 21.3392 164.15 22.7627C162.943 24.1863 161.441 25.3199 159.644 26.1634C157.876 26.9807 155.841 27.3893 153.539 27.3893ZM153.876 23.6722C155.42 23.6722 156.767 23.3427 157.918 22.6837C159.097 21.9982 160.079 21.1019 160.865 19.9947C161.651 18.8612 162.241 17.5958 162.634 16.1986C163.027 14.8014 163.223 13.391 163.223 11.9675C163.223 10.333 162.914 8.93585 162.297 7.77592C161.679 6.61599 160.809 5.73286 159.687 5.12654C158.592 4.52021 157.301 4.21705 155.813 4.21705C154.269 4.21705 152.908 4.55975 151.729 5.24517C150.55 5.90422 149.553 6.80053 148.739 7.93409C147.953 9.0413 147.364 10.2935 146.971 11.6907C146.578 13.0615 146.382 14.4719 146.382 15.9218C146.382 17.5562 146.69 18.9534 147.308 20.1134C147.925 21.2733 148.796 22.1564 149.918 22.7627C151.041 23.3691 152.36 23.6722 153.876 23.6722Z" fill="black"/>
<path d="M153.876 23.6722C155.42 23.6722 156.767 23.3427 157.918 22.6837C159.097 21.9982 160.079 21.1019 160.865 19.9947C161.651 18.8612 162.241 17.5958 162.634 16.1986C163.027 14.8014 163.223 13.391 163.223 11.9675C163.223 10.333 162.914 8.93585 162.297 7.77592C161.679 6.61599 160.809 5.73286 159.687 5.12654C158.592 4.52021 157.301 4.21705 155.813 4.21705C154.269 4.21705 152.908 4.55975 151.729 5.24517C150.55 5.90422 149.553 6.80053 148.739 7.93409C147.953 9.0413 147.364 10.2935 146.971 11.6907C146.578 13.0615 146.382 14.4719 146.382 15.9218C146.382 17.5562 146.69 18.9534 147.308 20.1134C147.925 21.2733 148.796 22.1564 149.918 22.7627C151.041 23.3691 152.36 23.6722 153.876 23.6722Z" fill="black"/>
<path d="M176.375 0.5H199.5L192.806 27.5H169.68L176.375 0.5Z" fill="black"/>
</svg>
